PathFileType	4	(X/Y/Z)	walk-thru1-5-TP.trc
DataRate	CameraRate	NumFrames	NumMarkers	Units	OrigDataRate	OrigDataStartFrame	OrigNumFrames
120.00	120.00	       4	60	mm	120.00	66	       521
Frame#	Time	Top.Head			Front.Head			Rear.Head			Jaw			C7			R.Clavicle			L.Clavicle			R.Shoulder			L.Shoulder			R.Scapula			L.Scapula			R.Scap.Inf			R.Biceps.Lateral			R.Elbow			R.Elbow.Medial			R.Forearm			R.Ulna			R.Radius			R.Wrist			R.Thumb.M1			R.Thumb.M2			R.Thumb.M3			R.Finger3.M1			R.Finger3.M2			R.Finger3.M3			L.Biceps.Lateral			L.Elbow			L.Elbow.Medial			L.Forearm			L.Ulna			L.Radius			L.Wrist			L.Thumb.M1			L.Thumb.M2			L.Thumb.M3			L.Finger3.M1			L.Finger3.M2			L.Finger3.M3			V.Sacral			R.ASIS			L.ASIS			R.Thigh			R.Thigh.Front			R.Knee			R.Knee.Medial			R.Shank			R.Ankle			R.Ankle.Medial			R.Heel			R.Toe			R.MedFoot			L.Thigh			L.Knee			L.Knee.Medial			L.Shank			L.Ankle			L.Ankle.Medial			L.Heel			L.Toe			L.MedFoot			V_mid_ASIS			V_R_Knee_JC			V_L_Knee_JC			V_R_Elbow_JC			V_L_Elbow_JC			V_R_Ankle_JC			V_L_Ankle_JC			V_R_Wrist_JC			V_L_Wrist_JC			V_R_ScaTrpz_1stMC_JC			V_R_1stMC_1stPP_JC			V_R_1stPP_1stDP_JC			V_R_LunCap_3rdMC_JC			V_R_3rdMC_3rdPP_JC			V_R_3rdPP_3rdMP_JC			V_R_3rdMP_3rdDP_JC			V_L_ScaTrpz_1stMC_JC			V_L_1stMC_1stPP_JC			V_L_1stPP_1stDP_JC			V_L_LunCap_3rdMC_JC			V_L_3rdMC_3rdPP_JC			V_L_3rdPP_3rdMP_JC			V_L_3rdMP_3rdPP_JC			V_ROOT_JC			V_R_Hip_JC			V_L_Hip_JC			V_R_GlenHum_JC			V_L_GlenHum_JC			V_ForeHead_Ctr			V_Vertex			V_Sagit_Lambdoid_Suture			V_R_FrontoTemp			V_L_FrontoTemporal			V_R_ParietalOccip			V_L_ParietalOcciptal			V_R_Temporal			V_L_Temporal			V_mid_FrontRearHead			V_mid_RLGlenHumCtrs			V_C7_vert			V_C1_vert			V_Mid_Hip			
		X1	Y1	Z1	X2	Y2	Z2	X3	Y3	Z3	X4	Y4	Z4	X5	Y5	Z5	X6	Y6	Z6	X7	Y7	Z7	X8	Y8	Z8	X9	Y9	Z9	X10	Y10	Z10	X11	Y11	Z11	X12	Y12	Z12	X13	Y13	Z13	X14	Y14	Z14	X15	Y15	Z15	X16	Y16	Z16	X17	Y17	Z17	X18	Y18	Z18	X19	Y19	Z19	X20	Y20	Z20	X21	Y21	Z21	X22	Y22	Z22	X23	Y23	Z23	X24	Y24	Z24	X25	Y25	Z25	X26	Y26	Z26	X27	Y27	Z27	X28	Y28	Z28	X29	Y29	Z29	X30	Y30	Z30	X31	Y31	Z31	X32	Y32	Z32	X33	Y33	Z33	X34	Y34	Z34	X35	Y35	Z35	X36	Y36	Z36	X37	Y37	Z37	X38	Y38	Z38	X39	Y39	Z39	X40	Y40	Z40	X41	Y41	Z41	X42	Y42	Z42	X43	Y43	Z43	X44	Y44	Z44	X45	Y45	Z45	X46	Y46	Z46	X47	Y47	Z47	X48	Y48	Z48	X49	Y49	Z49	X50	Y50	Z50	X51	Y51	Z51	X52	Y52	Z52	X53	Y53	Z53	X54	Y54	Z54	X55	Y55	Z55	X56	Y56	Z56	X57	Y57	Z57	X58	Y58	Z58	X59	Y59	Z59	X60	Y60	Z60	

66	0.542	1346.29956	53.86110	1809.29150	1241.11926	46.43630	1701.26868	1468.13147	51.94151	1705.26379	1279.88867	47.59702	1533.09192	1478.97144	45.59734	1572.53955	1381.78418	164.84467	1478.39282	1364.65308	-63.07298	1480.52051	1425.60938	252.29572	1472.65564	1428.89575	-162.08795	1490.41333	1531.67517	133.68806	1490.64880	1525.40942	-37.23648	1494.30957	1579.47595	141.91823	1403.26538	1485.19788	309.05487	1300.07642	1531.84900	325.70764	1150.93152	1549.41870	235.84738	1135.37866	1455.37988	274.94980	1029.34412	1496.13745	317.46152	930.62781	1436.10132	257.14252	896.07172	1444.88782	296.60040	849.24744	1428.08130	249.62958	862.43512	1395.84058	221.12602	813.23834	1360.33289	219.91475	783.54803	1408.11182	300.78314	776.66791	1396.12866	260.81192	722.83984	1409.93347	215.55357	700.93988	1444.17847	-228.06087	1342.56213	1452.05530	-275.78201	1166.20032	1504.06335	-215.52904	1147.12061	1385.50928	-242.23184	1065.47583	1426.50208	-271.38635	973.31281	1360.82617	-211.04930	927.58679	1360.56580	-245.91785	870.05493	1350.08997	-196.47711	863.00861	1355.61987	-164.37082	812.07520	1349.38013	-168.41386	749.76019	1338.84668	-260.07031	797.03113	1350.61658	-242.19724	739.76392	1375.09619	-226.80592	694.83521	1575.24146	30.24454	1097.48279	1486.34045	220.32767	1036.24609	1469.15588	-151.85823	1038.51880	1364.00757	204.05655	638.58875	1266.15967	135.12589	564.87988	1331.13062	187.48079	512.69366	1320.85632	68.62739	512.02551	1423.25110	141.35356	356.13092	1658.25134	161.09679	214.80310	1609.84155	70.56777	207.00757	1710.56348	99.08105	231.36055	1544.64221	131.86420	83.09981	1571.10486	89.07596	133.97284	1406.90527	-128.63118	653.80011	1373.93286	-102.57599	509.23181	1374.13367	13.51218	512.88721	1378.48865	-45.10345	310.52994	1494.18689	-56.65665	72.75773	1458.51013	34.09587	113.57114	1545.90076	6.33560	63.00061	1307.67578	-23.35640	51.15502	1371.67810	11.57606	76.72652																																																																																																																															
67	0.550	1340.54102	54.48574	1809.96558	1236.21692	44.97660	1701.02637	1462.54529	52.13692	1707.12756	1275.26990	47.73008	1533.17712	1473.97815	45.22229	1573.25513	1376.10876	164.83839	1478.37354	1359.23267	-62.73417	1481.66394	1421.01343	251.51871	1473.32288	1423.46216	-162.04822	1491.57678	1526.78345	132.78761	1491.00330	1520.00708	-37.78361	1493.80054	1574.70166	140.29390	1403.94141	1481.27307	308.59491	1301.61438	1526.29578	324.83783	1151.42188	1544.30432	235.57138	1136.39514	1451.03723	276.03644	1029.76440	1491.01050	316.08472	931.41528	1431.16235	257.18008	897.79462	1439.92603	295.07086	850.12927	1422.91052	249.97990	862.72638	1389.51917	220.94962	814.36035	1355.59033	221.58626	783.77502	1402.43091	300.95386	777.67249	1390.75049	259.80075	723.71729	1405.10547	216.13126	701.32483	1437.79199	-228.38757	1343.51672	1445.53333	-275.57849	1167.05310	1496.68750	-215.19130	1146.73254	1377.74402	-243.60600	1066.18250	1420.36926	-273.17770	974.22015	1353.83020	-212.40163	927.84509	1352.20386	-247.15326	871.35596	1341.14368	-197.92896	863.83423	1349.01306	-164.39363	812.23566	1340.04871	-171.18228	751.39777	1331.53247	-260.55408	798.54346	1342.85669	-243.46086	741.13892	1366.43079	-228.83623	694.66760	1569.49536	29.41285	1097.46704	1481.57666	220.33409	1037.50000	1464.36011	-152.19214	1038.09790	1354.31409	203.99033	640.64581	1256.07776	133.57159	567.49567	1320.23059	187.63310	514.73541	1309.50696	66.24517	513.99304	1410.36548	140.29187	354.95743	1641.95874	161.93785	211.70287	1594.24451	70.43733	203.76996	1696.05969	99.03179	227.31779	1523.87683	134.06200	84.24974	1553.42700	90.49581	133.14168	1404.95898	-128.54407	653.24377	1371.80237	-102.58325	509.04718	1371.71545	13.93705	513.17346	1377.39050	-44.42450	310.13010	1494.11462	-56.67426	72.82127	1458.25818	33.77631	113.37155	1545.79688	6.41144	63.12658	1307.53516	-23.41126	51.06042	1371.72559	11.59278	76.64655																																																																																																																															
68	0.558	1333.12830	53.68926	1809.69702	1229.44507	44.98164	1699.81067	1457.18457	51.81375	1707.16333	1269.91809	47.34520	1532.90454	1468.02783	44.45713	1573.09570	1370.82642	164.90614	1478.76953	1355.09741	-62.83551	1483.07922	1415.71082	252.15004	1473.92468	1417.46936	-161.43085	1491.91577	1520.94971	132.28699	1490.99219	1514.33655	-38.88449	1494.86450	1568.56409	139.88727	1404.40540	1476.70227	309.25632	1301.52942	1521.64880	323.25504	1151.72913	1538.95508	234.31143	1136.96130	1445.84180	274.17068	1029.45203	1485.74573	315.58011	932.05542	1426.11658	255.19901	898.03229	1434.82874	294.35388	851.06830	1416.58105	251.62463	862.94421	1383.71387	220.52965	815.65674	1349.53955	218.70915	784.96448	1396.94775	299.48474	778.38678	1385.74426	259.82605	724.23621	1399.90759	215.44553	701.90875	1432.71045	-229.78061	1344.11841	1439.31689	-275.80783	1166.99377	1489.01587	-215.86874	1147.26379	1368.33386	-244.31824	1067.62427	1412.63770	-273.14560	975.26489	1345.74170	-210.25229	928.40820	1344.44739	-246.84895	871.21143	1332.52966	-200.14899	864.56873	1339.70569	-166.43669	813.55194	1331.79590	-173.65555	751.32965	1323.55505	-261.27356	798.99866	1334.27332	-245.69542	741.05988	1358.13684	-230.41776	695.90271	1563.91577	29.72854	1097.86340	1475.52795	219.48770	1037.60889	1460.74451	-152.94969	1038.97510	1344.96228	204.57498	643.64496	1246.18835	132.42476	570.09021	1309.76221	186.20615	517.21600	1299.13135	66.59994	515.11853	1398.57336	138.89937	356.59787	1626.66479	162.25502	208.81616	1579.56641	70.87976	202.94402	1681.82141	99.45074	222.52173	1505.38452	133.39456	82.91533	1536.41052	91.64587	131.37920	1402.20264	-128.84850	653.36353	1369.63318	-102.53494	508.25409	1369.78723	13.62786	512.38831	1376.12317	-44.55885	310.10486	1493.73450	-57.17141	72.99014	1458.12732	33.78906	113.32634	1546.12732	7.22604	61.66362	1307.88110	-22.80910	50.26271	1372.04858	11.78798	76.49297																																																																																																																															
69	0.567	1328.00269	54.14813	1810.31909	1224.99512	42.19435	1697.86292	1451.12952	50.98959	1706.88867	1264.90845	47.13858	1532.74170	1462.16174	44.18328	1573.48608	1366.69934	163.39317	1479.30286	1350.24133	-62.54987	1483.65369	1410.35901	250.35519	1474.17188	1411.95801	-160.56250	1492.49182	1515.89075	131.34531	1492.12134	1508.50452	-39.05837	1496.23352	1563.32886	139.18822	1404.66077	1471.50659	307.38251	1301.44971	1516.47412	323.31519	1152.29688	1535.14880	233.58455	1136.97620	1441.08997	274.37308	1029.75476	1480.98938	315.88431	933.14508	1420.90405	255.45409	898.91876	1429.00220	294.54352	851.26050	1411.55835	248.63921	863.30402	1378.92932	220.81638	816.50842	1344.02185	220.56583	785.55646	1391.60193	300.75543	778.93073	1379.96680	260.74002	725.04095	1394.51257	214.54916	704.00635	1427.08801	-230.38968	1343.31616	1432.08350	-276.07394	1168.36194	1483.49353	-216.45628	1147.47290	1363.37598	-243.57076	1068.79993	1403.35913	-272.52625	975.15070	1337.79419	-212.51735	929.44769	1335.55859	-248.65231	872.85773	1326.18420	-199.70576	865.40533	1331.39282	-166.72792	813.67767	1322.78333	-173.22282	752.66174	1315.05408	-262.73276	800.20905	1326.38965	-246.89275	741.86682	1349.25977	-230.00948	697.93146	1558.79443	29.56406	1098.41333	1468.43909	220.62886	1039.38684	1456.09766	-153.73326	1040.53296	1334.79822	203.70721	643.82330	1235.98755	131.61024	573.20813	1299.25818	186.13025	520.17279	1290.97595	66.36162	516.71198	1383.05640	140.87361	357.71863	1610.42200	162.78818	204.77570	1562.78601	71.83687	198.73831	1665.44080	99.64767	217.51169	1485.62878	136.54037	82.57169	1516.93787	94.12827	130.90924	1399.77307	-128.57893	653.16724	1368.77966	-102.15583	508.08139	1369.42261	13.67866	512.26813	1374.87671	-44.58379	309.72070	1493.53296	-57.00939	73.09805	1458.44409	33.97536	113.56848	1545.95825	6.25424	63.45556	1307.75708	-22.73915	50.29895	1371.85437	11.84729	76.28425																																																																																																																															
